<svg width="5011" height="819" viewBox="0 0 5011 819" fill="none" xmlns="http://www.w3.org/2000/svg">
<path d="M3484 201.066C3561.04 201.066 3623.43 263.462 3623.43 340.502V606.64C3623.43 628.566 3625.74 647.269 3630.32 662.749C3634.77 678.229 3642.21 690.803 3652.4 700.632C3662.59 710.461 3675.84 717.584 3692.04 722.16C3708.27 726.697 3728.53 729.045 3752.68 729.045H3752.76C3765.65 729.045 3780.66 728.289 3798.01 726.737H3797.93C3815.32 725.185 3833.42 722.519 3852.28 718.778V805.926H3851.97L3851.89 806.005H3852.28V807.239C3828.77 810.979 3807.44 813.765 3788.22 815.675C3769.04 817.585 3750.97 818.5 3734.42 818.5C3699.68 818.5 3669.63 814.203 3643.89 805.926H3643.81C3643.25 805.766 3642.57 805.607 3641.98 805.448C3615.99 796.853 3594.14 783.601 3576.87 765.814C3559.48 748.185 3546.67 725.583 3538.39 698.444C3530.04 671.225 3525.9 639.629 3525.9 603.298L3525.22 299.356H3393.67V201.146H3483.96L3484 201.066Z" fill="#021118"/>
<path d="M1491.54 0.00380506C1581.15 0.839466 1649 24.994 1694.92 72.4278C1741.68 120.737 1771.88 189.022 1771.88 277.045C1771.88 365.068 1741.84 433.195 1694.84 481.026C1647.93 529.017 1584.97 545.491 1486.17 548.556H1248V805.661H1150.51V590.856C1150.51 512.741 1213.9 449.351 1292.02 449.351H1479.44C1540.6 449.351 1586.69 435.94 1617.21 409.239C1647.81 382.498 1669.85 338.486 1669.85 277.165C1669.85 215.843 1647.77 171.593 1617.21 144.334C1586.69 117.116 1540.76 103.546 1479.44 103.546H1248.16V416.004H1150.71V0.00380506H1491.54Z" fill="#021118"/>
<path d="M3131.82 180.791C3165.77 180.791 3196.37 186.083 3223.51 196.668C3250.65 207.253 3273.73 222.574 3292.59 242.51V242.351C3311.45 262.288 3325.94 286.721 3336.2 315.412C3346.47 344.023 3351.52 382.861 3351.52 418.357V804.552H3254.15V454.609C3254.15 425.162 3251.16 399.256 3245.12 377.012C3239.07 354.767 3230.07 336.064 3217.98 320.903C3205.8 305.742 3191 294.52 3173.21 286.88C3155.5 279.359 3134.57 275.539 3110.42 275.539C3084.75 275.539 3061.19 279.916 3039.66 288.631C3018.05 297.385 2999.79 309.403 2984.71 324.962C2969.55 340.442 2957.89 359.065 2949.61 381.071C2941.33 403.077 2937.11 427.589 2937.11 454.728V804.671H2839.7V200.886H2928L2931.38 304.15C2938.83 284.532 2949.09 267.262 2961.91 252.1C2974.72 237.059 2989.72 224.205 3006.67 213.62C3023.63 203.035 3042.69 194.917 3063.86 189.306C3085.03 183.696 3107.63 180.791 3131.78 180.791H3131.82Z" fill="#021118"/>
<path d="M2157.01 299.241H1934.92V804.577H1836.79V340.427H1836.87C1836.87 263.387 1899.26 200.991 1976.3 200.991H2157.01V299.241Z" fill="#021118"/>
<path d="M4821.29 445.413H5010.51V540.837H4821.29V727.588L4725.95 729.577V541.912H4535.66V445.413H4724.87V258.185H4821.29V445.413Z" fill="#021118"/>
<path d="M4381.77 248.498C4336.41 203.889 4271.54 181.406 4188.73 181.406L4188.62 181.326C4148.42 181.326 4111.69 186.858 4079.34 197.88C4047.23 208.784 4019.1 224.701 3995.66 244.956C3972.42 265.131 3953.72 289.326 3940.07 316.703C3926.34 344.161 3917.86 375.041 3914.72 408.387L3914.56 410.695H4018.74L4019.02 408.865C4025.62 366.485 4043.01 333.058 4070.55 309.58C4098.36 285.824 4136.25 274.244 4186.23 274.244C4236.21 274.244 4275.6 287.217 4303.58 312.883C4332.11 339.266 4345.44 373.767 4345.44 421.678V425.499L4344.61 425.658L4115.48 464.974C4044.24 477.23 3991.28 498.161 3958.09 527.449C3924.83 556.896 3907.95 596.729 3907.95 645.596C3907.95 672.735 3912.77 694.979 3923.51 717.821C3933.86 739.667 3948.34 758.29 3966.69 773.173C3984.4 787.499 4005.84 798.402 4030.24 805.923H4030.68C4031.51 806.242 4032.39 806.6 4033.3 806.759C4059.13 814.359 4087.58 818.259 4118.14 818.259C4144.36 818.259 4170.59 815.354 4195.9 809.664C4200.95 808.51 4205.93 807.197 4210.82 805.963H4211.46C4230.6 800.75 4248.7 794.304 4265.18 786.424V786.265C4286.11 776.357 4304.65 764.419 4320.13 750.77C4332.79 739.667 4343.53 727.61 4351.89 715.035L4353.8 712.329L4357.02 804.928H4449.94V429.756C4449.94 352.876 4427.69 293.623 4381.77 248.537V248.498ZM4345.6 553.355C4345.6 578.743 4340.71 602.579 4331.04 624.107C4322.52 643.208 4310.26 659.205 4290.09 677.629C4272.62 693.666 4250.93 706.36 4226.02 715.194C4200.87 724.148 4172.34 728.684 4140.9 728.684C4103.58 728.684 4072.78 721.163 4049.46 706.36L4048.7 705.962C4025.02 690.721 4014.52 670.705 4014.52 641.019C4014.52 617.502 4022.72 598.162 4038.87 583.438C4044.96 577.828 4053.28 572.774 4063.43 568.118C4064.74 567.521 4066.09 566.964 4067.48 566.367C4083.72 559.642 4104.57 554.071 4129.88 549.813L4345.04 511.731L4130.04 549.614L4345.04 511.532H4345.6V553.355Z" fill="#021118"/>
<path d="M2745.15 369.978C2731.14 330.662 2711.13 297.076 2685.14 269.101C2659.08 241.206 2628.04 219.36 2591.71 203.96C2555.46 188.48 2515.9 180.72 2470.58 180.72C2425.25 180.72 2384.5 188.48 2348.21 203.96C2311.96 219.519 2280.84 241.206 2254.78 269.101C2228.71 297.076 2208.78 330.662 2194.77 369.978C2180.88 409.293 2173.84 451.474 2173.84 499.067C2173.84 546.66 2180.8 589.916 2194.77 628.714C2208.66 667.672 2228.79 701.218 2254.78 729.59C2280.84 757.883 2311.88 779.81 2348.21 795.289C2357.8 799.428 2367.75 802.89 2378.02 805.874H2378.18C2406.79 814.231 2437.91 818.529 2470.7 818.529C2503.49 818.529 2533.93 814.231 2562.3 805.874H2562.22C2572.41 802.89 2582.16 799.428 2591.75 795.289C2628 779.81 2659.12 757.963 2685.18 729.59H2685.26C2711.33 701.218 2731.26 667.712 2745.27 628.714C2759.16 589.756 2766.2 545.785 2766.2 499.067C2766.2 452.35 2759.24 409.214 2745.27 369.978H2745.15ZM2651.76 592.701C2643.16 620.755 2630.43 644.91 2613.59 665.125C2596.8 685.3 2576.35 700.86 2552.43 711.723C2528.52 722.547 2501.3 727.919 2470.58 727.919C2439.86 727.919 2412.4 722.547 2388.16 711.723C2363.85 700.78 2343.4 685.3 2327 665.125C2310.53 644.95 2297.79 620.755 2288.84 592.701C2279.93 564.647 2275.43 532.613 2275.43 499.028C2275.43 465.442 2279.89 434.562 2288.84 406.508C2297.79 378.454 2310.53 354.299 2327 334.084C2343.4 313.909 2363.81 298.349 2388.16 287.486C2412.4 276.662 2439.98 271.25 2470.58 271.25C2501.18 271.25 2528.52 276.622 2552.43 287.486C2576.35 298.389 2596.8 313.869 2613.59 334.084C2630.39 354.299 2643.12 378.374 2651.76 406.508C2660.35 434.483 2664.65 464.606 2664.65 499.028C2664.65 533.449 2660.35 564.647 2651.76 592.701Z" fill="#021118"/>
<path d="M3622.98 131.561H3793.78V229.691H3664.21C3587.17 229.691 3524.77 167.295 3524.77 90.2552V0.00380506H3622.98V131.561Z" fill="#021118"/>
<path d="M1694.92 72.2897C1694.92 72.2897 1694.92 72.2897 1695 72.3736L1694.84 72.2058L1694.92 72.2897Z" fill="#021118"/>
<path fill-rule="evenodd" clip-rule="evenodd" d="M345.909 0C154.885 0 0 154.659 0 345.493V805.96H268.983V806H461.101C652.125 806 807 651.301 807 460.507V0H345.889H345.909ZM538.017 537.3H268.993V268.67H538.017V537.3Z" fill="#021118"/>
</svg>
